original fixture                                                        S      1
1H,,1H;,7Hproduct,8Hpart.igs,7Hcadmpeg,3H0.1,32,38,6,308,15,0H,1.0,2,2HMG      1
M,1,1.0,15H20260714.000000,0.001,1000.0,6Hauthor,3Horg,11,0,0H,0H;      G      2
     116       1       0       0       0       0       0       000010000D      1
     116       0       0       1       0                  POINTA       0D      2
     116       2       0       0       0       0       0       000010000D      3
     116       0       0       1       0                  POINTB       0D      4
     123       3       0       0       0       0       0       000010000D      5
     123       0       0       1       0                    NEGZ       0D      6
     123       4       0       0       0       0       0       000010000D      7
     123       0       0       1       0                    NEGY       0D      8
     123       5       0       0       0       0       0       000010000D      9
     123       0       0       1       0                    NEGX       0D     10
     123       6       0       0       0       0       0       000010000D     11
     123       0       0       1       0                    DIAG       0D     12
     190       7       0       0       0       0       0       000010000D     13
     190       0       0       1       0                   SURF1       0D     14
     190       8       0       0       0       0       0       000010000D     15
     190       0       0       1       0                   SURF2       0D     16
     190       9       0       0       0       0       0       000010000D     17
     190       0       0       1       0                   SURF3       0D     18
     190      10       0       0       0       0       0       000010000D     19
     190       0       0       1       0                   SURF4       0D     20
     110      11       0       0       0       0       0       000010000D     21
     110       0       0       1       0                      AB       0D     22
     110      12       0       0       0       0       0       000010000D     23
     110       0       0       1       0                      AC       0D     24
     110      13       0       0       0       0       0       000010000D     25
     110       0       0       1       0                      AD       0D     26
     110      14       0       0       0       0       0       000010000D     27
     110       0       0       1       0                      BC       0D     28
     110      15       0       0       0       0       0       000010000D     29
     110       0       0       1       0                      BD       0D     30
     110      16       0       0       0       0       0       000010000D     31
     110       0       0       1       0                      CD       0D     32
     502      17       0       0       0       0       0       000010000D     33
     502       0       0       1       1                VERTICES       0D     34
     504      18       0       0       0       0       0       000010001D     35
     504       0       0       2       1                   EDGES       0D     36
     508      20       0       0       0       0       0       000010000D     37
     508       0       0       1       1                   LOOP1       0D     38
     508      21       0       0       0       0       0       000010000D     39
     508       0       0       1       1                   LOOP2       0D     40
     508      22       0       0       0       0       0       000010000D     41
     508       0       0       1       1                   LOOP3       0D     42
     508      23       0       0       0       0       0       000010000D     43
     508       0       0       1       1                   LOOP4       0D     44
     510      24       0       0       0       0       0       000010000D     45
     510       0       0       1       1                   FACE1       0D     46
     510      25       0       0       0       0       0       000010000D     47
     510       0       0       1       1                   FACE2       0D     48
     510      26       0       0       0       0       0       000010000D     49
     510       0       0       1       1                   FACE3       0D     50
     510      27       0       0       0       0       0       000010000D     51
     510       0       0       1       1                   FACE4       0D     52
     514      28       0       0       0       0       0       000010000D     53
     514       0       0       1       1                   SHELL       0D     54
     186      29       0       0       0       0       0       000000000D     55
     186       0       0       1       0                   SOLID       0D     56
116,0,0,0,0;                                                           1P      1
116,1,0,0,0;                                                           3P      2
123,0,0,-1;                                                            5P      3
123,0,-1,0;                                                            7P      4
123,-1,0,0;                                                            9P      5
123,0.5773502691896258,0.5773502691896258,0.5773502691896258;         11P      6
190,1,5;                                                              13P      7
190,1,7;                                                              15P      8
190,1,9;                                                              17P      9
190,3,11;                                                             19P     10
110,0,0,0,1,0,0;                                                      21P     11
110,0,0,0,0,1,0;                                                      23P     12
110,0,0,0,0,0,1;                                                      25P     13
110,1,0,0,0,1,0;                                                      27P     14
110,1,0,0,0,0,1;                                                      29P     15
110,0,1,0,0,0,1;                                                      31P     16
502,4,0,0,0,1,0,0,0,1,0,0,0,1;                                        33P     17
504,6,21,33,1,33,2,23,33,1,33,3,25,33,1,33,4,27,33,2,33,3,29,33,      35P     18
2,33,4,31,33,3,33,4;                                                  35P     19
508,3,0,35,2,1,0,0,35,4,0,0,0,35,1,0,0;                               37P     20
508,3,0,35,1,1,0,0,35,5,1,0,0,35,3,0,0;                               39P     21
508,3,0,35,3,1,0,0,35,6,0,0,0,35,2,0,0;                               41P     22
508,3,0,35,4,1,0,0,35,6,1,0,0,35,5,0,0;                               43P     23
510,13,1,1,37;                                                        45P     24
510,15,1,1,39;                                                        47P     25
510,17,1,1,41;                                                        49P     26
510,19,1,1,43;                                                        51P     27
514,4,45,1,47,1,49,1,51,1;                                            53P     28
186,53,1,0;                                                           55P     29
S0000001G0000002D0000056P0000029                                        T      1
