original fixture                                                        S      1
1H,,1H;,7Hproduct,8Hpart.igs,7Hcadmpeg,3H0.1,32,38,6,308,15,0H,1.0,2,2HMG      1
M,1,1.0,15H20260714.000000,0.001,1000.0,6Hauthor,3Horg,11,0,0H,0H;      G      2
     116       1       0       0       0       0       0       000010000D      1
     116       0       0       1       0                LOCATION       0D      2
     123       2       0       0       0       0       0       000010000D      3
     123       0       0       1       0                  NORMAL       0D      4
     190       3       0       0       0       0       0       000010000D      5
     190       0       0       1       0                 SURFACE       0D      6
     110       4       0       0       0       0       0       000010000D      7
     110       0       0       1       0                   EDGE1       0D      8
     110       5       0       0       0       0       0       000010000D      9
     110       0       0       1       0                   EDGE2       0D     10
     110       6       0       0       0       0       0       000010000D     11
     110       0       0       1       0                   EDGE3       0D     12
     110       7       0       0       0       0       0       000010000D     13
     110       0       0       1       0                   EDGE4       0D     14
     110       8       0       0       0       0       0       000010000D     15
     110       0       0       1       0                   EDGE5       0D     16
     110       9       0       0       0       0       0       000010000D     17
     110       0       0       1       0                   EDGE6       0D     18
     110      10       0       0       0       0       0       000010000D     19
     110       0       0       1       0                   EDGE7       0D     20
     502      11       0       0       0       0       0       000010000D     21
     502       0       0       1       1                VERTICES       0D     22
     504      12       0       0       0       0       0       000010001D     23
     504       0       0       2       1                   EDGES       0D     24
     508      14       0       0       0       0       0       000010000D     25
     508       0       0       1       1                   LOOP1       0D     26
     508      15       0       0       0       0       0       000010000D     27
     508       0       0       1       1                   LOOP2       0D     28
     508      16       0       0       0       0       0       000010000D     29
     508       0       0       1       1                   LOOP3       0D     30
     510      17       0       0       0       0       0       000010000D     31
     510       0       0       1       1                   FACE1       0D     32
     510      18       0       0       0       0       0       000010000D     33
     510       0       0       1       1                   FACE2       0D     34
     510      19       0       0       0       0       0       000010000D     35
     510       0       0       1       1                   FACE3       0D     36
     514      20       0       0       0       0       0       000000000D     37
     514       0       0       1       2                   SHELL       0D     38
116,0,0,0,0;                                                           1P      1
123,0,0,1;                                                             3P      2
190,1,3;                                                               5P      3
110,0,0,0,1,0,0;                                                       7P      4
110,1,0,0,0,1,0;                                                       9P      5
110,0,1,0,0,0,0;                                                      11P      6
110,0,0,0,0,-1,0;                                                     13P      7
110,0,-1,0,1,0,0;                                                     15P      8
110,1,0,0,0.5,1,0;                                                    17P      9
110,0.5,1,0,0,0,0;                                                    19P     10
502,5,0,0,0,1,0,0,0,1,0,0,-1,0,0.5,1,0;                               21P     11
504,7,7,21,1,21,2,9,21,2,21,3,11,21,3,21,1,13,21,1,21,4,15,21,4,      23P     12
21,2,17,21,2,21,5,19,21,5,21,1;                                       23P     13
508,3,0,23,1,1,0,0,23,2,1,0,0,23,3,1,0;                               25P     14
508,3,0,23,1,0,0,0,23,4,1,0,0,23,5,1,0;                               27P     15
508,3,0,23,1,1,0,0,23,6,1,0,0,23,7,1,0;                               29P     16
510,5,1,1,25;                                                         31P     17
510,5,1,1,27;                                                         33P     18
510,5,1,1,29;                                                         35P     19
514,3,31,1,33,1,35,1;                                                 37P     20
S0000001G0000002D0000038P0000020                                        T      1
