original fixture                                                        S      1
1H,,1H;,7Hproduct,8Hpart.igs,7Hcadmpeg,3H0.1,32,38,6,308,15,0H,1.0,2,2HMG      1
M,1,1.0,15H20260714.000000,0.001,1000.0,6Hauthor,3Horg,11,0,0H,0H;      G      2
     116       1       0       0       0       0       0       000010000D      1
     116       0       0       1       0                   OUTP0       0D      2
     116       2       0       0       0       0       0       000010000D      3
     116       0       0       1       0                   OUTP1       0D      4
     123       3       0       0       0       0       0       000010000D      5
     123       0       0       1       0                   OUTN0       0D      6
     123       4       0       0       0       0       0       000010000D      7
     123       0       0       1       0                   OUTN1       0D      8
     123       5       0       0       0       0       0       000010000D      9
     123       0       0       1       0                   OUTN2       0D     10
     123       6       0       0       0       0       0       000010000D     11
     123       0       0       1       0                   OUTN3       0D     12
     190       7       0       0       0       0       0       000010000D     13
     190       0       0       1       0                   OUTS0       0D     14
     190       8       0       0       0       0       0       000010000D     15
     190       0       0       1       0                   OUTS1       0D     16
     190       9       0       0       0       0       0       000010000D     17
     190       0       0       1       0                   OUTS2       0D     18
     190      10       0       0       0       0       0       000010000D     19
     190       0       0       1       0                   OUTS3       0D     20
     110      11       0       0       0       0       0       000010000D     21
     110       0       0       1       0                   OUTE0       0D     22
     110      12       0       0       0       0       0       000010000D     23
     110       0       0       1       0                   OUTE1       0D     24
     110      13       0       0       0       0       0       000010000D     25
     110       0       0       1       0                   OUTE2       0D     26
     110      14       0       0       0       0       0       000010000D     27
     110       0       0       1       0                   OUTE3       0D     28
     110      15       0       0       0       0       0       000010000D     29
     110       0       0       1       0                   OUTE4       0D     30
     110      16       0       0       0       0       0       000010000D     31
     110       0       0       1       0                   OUTE5       0D     32
     502      17       0       0       0       0       0       000010000D     33
     502       0       0       1       1                 OUTVERT       0D     34
     504      18       0       0       0       0       0       000010001D     35
     504       0       0       2       1                 OUTEDGE       0D     36
     508      20       0       0       0       0       0       000010000D     37
     508       0       0       1       1                   OUTL0       0D     38
     508      21       0       0       0       0       0       000010000D     39
     508       0       0       1       1                   OUTL1       0D     40
     508      22       0       0       0       0       0       000010000D     41
     508       0       0       1       1                   OUTL2       0D     42
     508      23       0       0       0       0       0       000010000D     43
     508       0       0       1       1                   OUTL3       0D     44
     510      24       0       0       0       0       0       000010000D     45
     510       0       0       1       1                   OUTF0       0D     46
     510      25       0       0       0       0       0       000010000D     47
     510       0       0       1       1                   OUTF1       0D     48
     510      26       0       0       0       0       0       000010000D     49
     510       0       0       1       1                   OUTF2       0D     50
     510      27       0       0       0       0       0       000010000D     51
     510       0       0       1       1                   OUTF3       0D     52
     514      28       0       0       0       0       0       000010000D     53
     514       0       0       1       1                   OUTSH       0D     54
     116      29       0       0       0       0       0       000010000D     55
     116       0       0       1       0                  VOIDP0       0D     56
     116      30       0       0       0       0       0       000010000D     57
     116       0       0       1       0                  VOIDP1       0D     58
     123      31       0       0       0       0       0       000010000D     59
     123       0       0       1       0                  VOIDN0       0D     60
     123      32       0       0       0       0       0       000010000D     61
     123       0       0       1       0                  VOIDN1       0D     62
     123      33       0       0       0       0       0       000010000D     63
     123       0       0       1       0                  VOIDN2       0D     64
     123      34       0       0       0       0       0       000010000D     65
     123       0       0       1       0                  VOIDN3       0D     66
     190      35       0       0       0       0       0       000010000D     67
     190       0       0       1       0                  VOIDS0       0D     68
     190      36       0       0       0       0       0       000010000D     69
     190       0       0       1       0                  VOIDS1       0D     70
     190      37       0       0       0       0       0       000010000D     71
     190       0       0       1       0                  VOIDS2       0D     72
     190      38       0       0       0       0       0       000010000D     73
     190       0       0       1       0                  VOIDS3       0D     74
     110      39       0       0       0       0       0       000010000D     75
     110       0       0       1       0                  VOIDE0       0D     76
     110      40       0       0       0       0       0       000010000D     77
     110       0       0       1       0                  VOIDE1       0D     78
     110      41       0       0       0       0       0       000010000D     79
     110       0       0       1       0                  VOIDE2       0D     80
     110      42       0       0       0       0       0       000010000D     81
     110       0       0       1       0                  VOIDE3       0D     82
     110      43       0       0       0       0       0       000010000D     83
     110       0       0       1       0                  VOIDE4       0D     84
     110      44       0       0       0       0       0       000010000D     85
     110       0       0       1       0                  VOIDE5       0D     86
     502      45       0       0       0       0       0       000010000D     87
     502       0       0       1       1                VOIDVERT       0D     88
     504      46       0       0       0       0       0       000010001D     89
     504       0       0       2       1                VOIDEDGE       0D     90
     508      48       0       0       0       0       0       000010000D     91
     508       0       0       1       1                  VOIDL0       0D     92
     508      49       0       0       0       0       0       000010000D     93
     508       0       0       1       1                  VOIDL1       0D     94
     508      50       0       0       0       0       0       000010000D     95
     508       0       0       1       1                  VOIDL2       0D     96
     508      51       0       0       0       0       0       000010000D     97
     508       0       0       1       1                  VOIDL3       0D     98
     510      52       0       0       0       0       0       000010000D     99
     510       0       0       1       1                  VOIDF0       0D    100
     510      53       0       0       0       0       0       000010000D    101
     510       0       0       1       1                  VOIDF1       0D    102
     510      54       0       0       0       0       0       000010000D    103
     510       0       0       1       1                  VOIDF2       0D    104
     510      55       0       0       0       0       0       000010000D    105
     510       0       0       1       1                  VOIDF3       0D    106
     514      56       0       0       0       0       0       000010000D    107
     514       0       0       1       1                  VOIDSH       0D    108
     186      57       0       0       0       0       0       000000000D    109
     186       0       0       1       0                VOIDBODY       0D    110
116,0,0,0,0;                                                           1P      1
116,4,0,0,0;                                                           3P      2
123,0,0,-1;                                                            5P      3
123,0,-1,0;                                                            7P      4
123,-1,0,0;                                                            9P      5
123,1,1,1;                                                            11P      6
190,1,5;                                                              13P      7
190,1,7;                                                              15P      8
190,1,9;                                                              17P      9
190,3,11;                                                             19P     10
110,0,0,0,4,0,0;                                                      21P     11
110,0,0,0,0,4,0;                                                      23P     12
110,0,0,0,0,0,4;                                                      25P     13
110,4,0,0,0,4,0;                                                      27P     14
110,4,0,0,0,0,4;                                                      29P     15
110,0,4,0,0,0,4;                                                      31P     16
502,4,0,0,0,4,0,0,0,4,0,0,0,4;                                        33P     17
504,6,21,33,1,33,2,23,33,1,33,3,25,33,1,33,4,27,33,2,33,3,29,33,      35P     18
2,33,4,31,33,3,33,4;                                                  35P     19
508,3,0,35,2,1,0,0,35,4,0,0,0,35,1,0,0;                               37P     20
508,3,0,35,1,1,0,0,35,5,1,0,0,35,3,0,0;                               39P     21
508,3,0,35,3,1,0,0,35,6,0,0,0,35,2,0,0;                               41P     22
508,3,0,35,4,1,0,0,35,6,1,0,0,35,5,0,0;                               43P     23
510,13,1,1,37;                                                        45P     24
510,15,1,1,39;                                                        47P     25
510,17,1,1,41;                                                        49P     26
510,19,1,1,43;                                                        51P     27
514,4,45,1,47,1,49,1,51,1;                                            53P     28
116,0.5,0.5,0.5,0;                                                    55P     29
116,1,0.5,0.5,0;                                                      57P     30
123,0,0,-1;                                                           59P     31
123,0,-1,0;                                                           61P     32
123,-1,0,0;                                                           63P     33
123,1,1,1;                                                            65P     34
190,55,59;                                                            67P     35
190,55,61;                                                            69P     36
190,55,63;                                                            71P     37
190,57,65;                                                            73P     38
110,0.5,0.5,0.5,1,0.5,0.5;                                            75P     39
110,0.5,0.5,0.5,0.5,1,0.5;                                            77P     40
110,0.5,0.5,0.5,0.5,0.5,1;                                            79P     41
110,1,0.5,0.5,0.5,1,0.5;                                              81P     42
110,1,0.5,0.5,0.5,0.5,1;                                              83P     43
110,0.5,1,0.5,0.5,0.5,1;                                              85P     44
502,4,0.5,0.5,0.5,1,0.5,0.5,0.5,1,0.5,0.5,0.5,1;                      87P     45
504,6,75,87,1,87,2,77,87,1,87,3,79,87,1,87,4,81,87,2,87,3,83,87,      89P     46
2,87,4,85,87,3,87,4;                                                  89P     47
508,3,0,89,2,1,0,0,89,4,0,0,0,89,1,0,0;                               91P     48
508,3,0,89,1,1,0,0,89,5,1,0,0,89,3,0,0;                               93P     49
508,3,0,89,3,1,0,0,89,6,0,0,0,89,2,0,0;                               95P     50
508,3,0,89,4,1,0,0,89,6,1,0,0,89,5,0,0;                               97P     51
510,67,1,1,91;                                                        99P     52
510,69,1,1,93;                                                       101P     53
510,71,1,1,95;                                                       103P     54
510,73,1,1,97;                                                       105P     55
514,4,99,1,101,1,103,1,105,1;                                        107P     56
186,53,1,1,107,0;                                                    109P     57
S0000001G0000002D0000110P0000057                                        T      1
