original fixture                                                        S      1
1H,,1H;,7Hproduct,8Hpart.igs,7Hcadmpeg,3H0.1,32,38,6,308,15,0H,1.0,2,2HMG      1
M,1,1.0,15H20260714.000000,0.001,1000.0,6Hauthor,3Horg,11,0,0H,0H;      G      2
     116       1       0       0       0       0       0       000010000D      1
     116       0       0       1       0                  ORIGIN       0D      2
     123       2       0       0       0       0       0       000010000D      3
     123       0       0       1       0                    AXIS       0D      4
     192       3       0       0       0       0       0       000010000D      5
     192       0       0       1       0                CYLINDER       0D      6
     110       4       0       0       0       0       0       000010000D      7
     110       0       0       1       0                SEAMEDGE       0D      8
     502       5       0       0       0       0       0       000010000D      9
     502       0       0       1       1                VERTICES       0D     10
     504       6       0       0       0       0       0       000010001D     11
     504       0       0       1       1                   EDGES       0D     12
     126       7       0       0       0       0       0       000010500D     13
     126       0       0       1       1                 SEAMUV0       0D     14
     126       8       0       0       0       0       0       000010500D     15
     126       0       0       2       1                 SEAMUV1       0D     16
     508      10       0       0       0       0       0       000010000D     17
     508       0       0       1       1                SEAMLOOP       0D     18
     510      11       0       0       0       0       0       000010000D     19
     510       0       0       1       1                SEAMFACE       0D     20
     514      12       0       0       0       0       0       000000000D     21
     514       0       0       1       2                SEAMSHEL       0D     22
116,0,0,0,0;                                                           1P      1
123,0,0,1;                                                             3P      2
192,1,3,1;                                                             5P      3
110,1,0,0,1,0,1;                                                       7P      4
502,2,1,0,0,1,0,1;                                                     9P      5
504,1,7,9,1,9,2;                                                      11P      6
126,1,1,1,0,1,0,0,0,1,1,1,1,0,0,0,0,1,0,0,1,0,0,1;                    13P      7
126,1,1,1,0,1,0,0,0,1,1,1,1,6.283185307179586,1,0,6.283185307179      15P      8
586,0,0,0,1,0,0,1;                                                    15P      9
508,2,0,11,1,1,1,1,13,0,11,1,0,1,1,15;                                17P     10
510,5,1,1,17;                                                         19P     11
514,1,19,1;                                                           21P     12
S0000001G0000002D0000022P0000012                                        T      1
