original fixture                                                        S      1
1H,,1H;,7Hproduct,8Hpart.igs,7Hcadmpeg,3H0.1,32,38,6,308,15,0H,1.0,2,2HMG      1
M,1,1.0,15H20260714.000000,0.001,1000.0,6Hauthor,3Horg,11,0,0H,0H;      G      2
     116       1       0       0       0       0       0       000010000D      1
     116       0       0       1       0                LOCATION       0D      2
     123       2       0       0       0       0       0       000010000D      3
     123       0       0       1       0                  NORMAL       0D      4
     190       3       0       0       0       0       0       000010000D      5
     190       0       0       1       0                 SURFACE       0D      6
     110       4       0       0       0       0       0       000010000D      7
     110       0       0       1       0                   EDGE1       0D      8
     110       5       0       0       0       0       0       000010000D      9
     110       0       0       1       0                   EDGE2       0D     10
     110       6       0       0       0       0       0       000010000D     11
     110       0       0       1       0                   EDGE3       0D     12
     110       7       0       0       0       0       0       000010000D     13
     110       0       0       1       0                   EDGE4       0D     14
     502       8       0       0       0       0       0       000010000D     15
     502       0       0       1       1                VERTICES       0D     16
     504       9       0       0       0       0       0       000010001D     17
     504       0       0       1       1                   EDGES       0D     18
     508      10       0       0       0       0       0       000010000D     19
     508       0       0       1       1                    LOOP       0D     20
     510      11       0       0       0       0       0       000010000D     21
     510       0       0       1       1                    FACE       0D     22
     514      12       0       0       0       0       0       000000000D     23
     514       0       0       1       2                   SHELL       0D     24
116,0,0,0,0;                                                           1P      1
123,0,0,1;                                                             3P      2
190,1,3;                                                               5P      3
110,0,0,0,1,0,0;                                                       7P      4
110,1,0,0,1,1,0;                                                       9P      5
110,1,1,0,0,1,0;                                                      11P      6
110,0,1,0,0,0,0;                                                      13P      7
502,4,0,0,0,1,0,0,1,1,0,0,1,0;                                        15P      8
504,4,7,15,1,15,2,9,15,2,15,3,11,15,3,15,4,13,15,4,15,1;              17P      9
508,4,0,17,1,1,0,0,17,2,1,0,0,17,3,1,0,0,17,4,1,0;                    19P     10
510,5,1,1,19;                                                         21P     11
514,1,21,1;                                                           23P     12
S0000001G0000002D0000024P0000012                                        T      1
